<svg xmlns="http://www.w3.org/2000/svg" xmlns:xlink="http://www.w3.org/1999/xlink" width="100" height="100"><defs><path id="a" d="M.894.518h21.507V9H.894z"/><path id="c" d="M.518.465H9v22.936H.518z"/></defs><g fill="none" fill-rule="evenodd"><path fill="#715A92" d="M79 84a4.987 4.987 0 0 1-3.536-1.464l-28-28a5.002 5.002 0 0 1 0-7.072 5.002 5.002 0 0 1 7.072 0l28 28A5.002 5.002 0 0 1 79 84"/><path fill="#A696BA" d="M74 50c0-13.255-10.745-24-24-24S26 36.745 26 50s10.745 24 24 24 24-10.745 24-24"/><path fill="#715A92" d="M68 50c0-9.941-8.059-18-18-18s-18 8.059-18 18 8.059 18 18 18 18-8.059 18-18"/><path fill="#FFF" d="M64 50c0-7.732-6.268-14-14-14s-14 6.268-14 14 6.268 14 14 14 14-6.268 14-14"/><path fill="#AAA" fill-opacity=".6" d="M42.028 51.8H48.2l-2.928 5.856a.928.928 0 0 0 .83 1.344c.194 0 .383-.06.54-.173l11.604-8.288c.473-.338.754-.884.754-1.465a.874.874 0 0 0-.873-.874H51.8l2.928-5.856a.928.928 0 0 0-1.37-1.17l-11.938 8.77a1.026 1.026 0 0 0 .608 1.856M24 28c-2.206 0-4-1.794-4-4s1.794-4 4-4 4 1.794 4 4-1.794 4-4 4m18 60c-2.206 0-4-1.794-4-4s1.794-4 4-4 4 1.794 4 4-1.794 4-4 4m42-44c-2.206 0-4-1.794-4-4s1.794-4 4-4 4 1.794 4 4-1.794 4-4 4"/><path fill="#AAA" fill-opacity=".3" d="M35.508 82.331c.141-.846-.265-1.7-1.027-2.093C23.518 74.59 16.001 63.16 16.001 50a33.783 33.783 0 0 1 4.966-17.668 1.995 1.995 0 0 0-.616-2.712 2.017 2.017 0 0 0-2.825.646A37.807 37.807 0 0 0 12 50c0 14.725 8.376 27.491 20.623 33.8 1.202.62 2.663-.135 2.885-1.469"/><g transform="translate(47 79)"><mask id="b" fill="#fff"><use xlink:href="#a"/></mask><path fill="#AAA" fill-opacity=".3" d="M.897 6.906A1.986 1.986 0 0 0 2.876 9L3 9c6.679 0 12.951-1.73 18.403-4.758 1.137-.63 1.338-2.187.419-3.106l-.05-.049c-.63-.632-1.598-.74-2.378-.309A33.79 33.79 0 0 1 3 5h-.091A2.015 2.015 0 0 0 .897 6.906" mask="url(#b)"/></g><g transform="translate(79 46)"><mask id="d" fill="#fff"><use xlink:href="#c"/></mask><path fill="#AAA" fill-opacity=".3" d="M6.39.56a1.964 1.964 0 0 0-1.425 1.985A33.784 33.784 0 0 1 .778 20.393c-.432.782-.323 1.75.308 2.38l.05.05c.92.918 2.476.716 3.107-.42a37.793 37.793 0 0 0 4.72-20.08C8.904 1.063 7.67.197 6.46.54l-.07.02z" mask="url(#d)"/></g><path fill="#AAA" fill-opacity=".3" d="M29.622 20.355a1.992 1.992 0 0 0 2.707.615A33.773 33.773 0 0 1 50 16c12.498 0 23.437 6.783 29.345 16.857.461.787 1.421 1.132 2.293.864 1.23-.378 1.803-1.809 1.151-2.919C76.192 19.555 63.981 12 50 12a37.81 37.81 0 0 0-19.738 5.528 2.014 2.014 0 0 0-.644 2.82l.004.007z"/></g></svg>