{
	"asset":{
		"generator":"Khronos glTF Blender I/O v3.5.30",
		"version":"2.0"
	},
	"extensionsUsed":[
		"KHR_materials_specular",
		"KHR_materials_ior"
	],
	"scene":0,
	"scenes":[
		{
			"name":"Scene",
			"nodes":[
				9
			]
		}
	],
	"nodes":[
		{
			"mesh":0,
			"name":"Body1.001",
			"scale":[
				10,
				9.999999046325684,
				9.999999046325684
			],
			"translation":[
				0,
				-2.1105515770614147e-06,
				0
			]
		},
		{
			"mesh":1,
			"name":"Body2",
			"scale":[
				10,
				9.999999046325684,
				9.999999046325684
			],
			"translation":[
				0,
				-2.1105515770614147e-06,
				0
			]
		},
		{
			"mesh":2,
			"name":"Body3",
			"scale":[
				10,
				9.999999046325684,
				9.999999046325684
			],
			"translation":[
				0,
				-2.1105515770614147e-06,
				0
			]
		},
		{
			"mesh":3,
			"name":"Body4",
			"scale":[
				10,
				9.999999046325684,
				9.999999046325684
			],
			"translation":[
				0,
				-2.1105515770614147e-06,
				0
			]
		},
		{
			"children":[
				0,
				1,
				2,
				3
			],
			"name":"3G_4G_GPS OutdoorAntenna v2",
			"translation":[
				0,
				-2.1105515770614147e-06,
				0
			]
		},
		{
			"children":[
				4
			],
			"name":"3G_4G_GPS OutdoorAntenna v2:1",
			"translation":[
				0,
				20.583141326904297,
				52.560298919677734
			]
		},
		{
			"mesh":4,
			"name":"Body1",
			"scale":[
				10,
				9.999999046325684,
				9.999999046325684
			]
		},
		{
			"children":[
				6
			],
			"name":"AntennaMount_Copy v2"
		},
		{
			"children":[
				7
			],
			"name":"AntennaMount_Copy v2:1",
			"rotation":[
				0.7071068286895752,
				0,
				0,
				0.7071068286895752
			],
			"translation":[
				0,
				52.583133697509766,
				52.560298919677734
			]
		},
		{
			"children":[
				5,
				8
			],
			"name":"AntennaModuleAssy v3",
			"rotation":[
				0.000964462582487613,
				0,
				0,
				1
			],
			"scale":[
				0.0010000000474974513,
				0.0010000000474974513,
				0.0010000000474974513
			],
			"translation":[
				0,
				0.030173130333423615,
				-0.052891720086336136
			]
		}
	],
	"materials":[
		{
			"doubleSided":true,
			"extensions":{
				"KHR_materials_specular":{
					"specularColorFactor":[
						2.371357614441398,
						2.371357614441398,
						2.371357614441398
					]
				},
				"KHR_materials_ior":{
					"ior":1.4500000476837158
				}
			},
			"name":"Opaque(63,63,63)",
			"pbrMetallicRoughness":{
				"baseColorFactor":[
					0.250980406999588,
					0.250980406999588,
					0.250980406999588,
					1
				],
				"roughnessFactor":0.5527864098548889
			}
		},
		{
			"doubleSided":true,
			"extensions":{
				"KHR_materials_specular":{
					"specularColorFactor":[
						2.371357614441398,
						2.371357614441398,
						2.371357614441398
					]
				},
				"KHR_materials_ior":{
					"ior":1.4500000476837158
				}
			},
			"name":"Opaque(152,170,175)",
			"pbrMetallicRoughness":{
				"baseColorFactor":[
					0.5960784554481506,
					0.6666666865348816,
					0.686274528503418,
					1
				],
				"roughnessFactor":0.5527864098548889
			}
		},
		{
			"doubleSided":true,
			"extensions":{
				"KHR_materials_specular":{
					"specularColorFactor":[
						2.371357614441398,
						2.371357614441398,
						2.371357614441398
					]
				},
				"KHR_materials_ior":{
					"ior":1.4500000476837158
				}
			},
			"name":"Opaque(255,0,0)",
			"pbrMetallicRoughness":{
				"baseColorFactor":[
					1,
					0,
					0,
					1
				],
				"roughnessFactor":0.5527864098548889
			}
		},
		{
			"doubleSided":true,
			"extensions":{
				"KHR_materials_specular":{
					"specularColorFactor":[
						2.371357614441398,
						2.371357614441398,
						2.371357614441398
					]
				},
				"KHR_materials_ior":{
					"ior":1.4500000476837158
				}
			},
			"name":"Plastic - Matte (Gray)",
			"pbrMetallicRoughness":{
				"baseColorFactor":[
					0.7019608020782471,
					0.7019608020782471,
					0.7019608020782471,
					1
				],
				"roughnessFactor":0.5527864098548889
			}
		}
	],
	"meshes":[
		{
			"name":"Body1.001",
			"primitives":[
				{
					"attributes":{
						"POSITION":0,
						"TEXCOORD_0":1,
						"NORMAL":2
					},
					"indices":3,
					"material":0
				}
			]
		},
		{
			"name":"Body2",
			"primitives":[
				{
					"attributes":{
						"POSITION":4,
						"TEXCOORD_0":5,
						"NORMAL":6
					},
					"indices":7,
					"material":1
				}
			]
		},
		{
			"name":"Body3",
			"primitives":[
				{
					"attributes":{
						"POSITION":8,
						"TEXCOORD_0":9,
						"NORMAL":10
					},
					"indices":11,
					"material":2
				}
			]
		},
		{
			"name":"Body4",
			"primitives":[
				{
					"attributes":{
						"POSITION":12,
						"TEXCOORD_0":13,
						"NORMAL":14
					},
					"indices":15,
					"material":1
				}
			]
		},
		{
			"name":"Body1",
			"primitives":[
				{
					"attributes":{
						"POSITION":16,
						"TEXCOORD_0":17,
						"NORMAL":18
					},
					"indices":19,
					"material":3
				}
			]
		}
	],
	"accessors":[
		{
			"bufferView":0,
			"componentType":5126,
			"count":908,
			"max":[
				2.5,
				4.330431590640377e-16,
				2.5
			],
			"min":[
				-2.5,
				-1.5,
				-2.5
			],
			"type":"VEC3"
		},
		{
			"bufferView":1,
			"componentType":5126,
			"count":908,
			"type":"VEC2"
		},
		{
			"bufferView":2,
			"componentType":5126,
			"count":908,
			"type":"VEC3"
		},
		{
			"bufferView":3,
			"componentType":5123,
			"count":4212,
			"type":"SCALAR"
		},
		{
			"bufferView":4,
			"componentType":5126,
			"count":6236,
			"max":[
				0.6000000238418579,
				-1.5,
				0.6000000238418579
			],
			"min":[
				-0.6000000238418579,
				-2.950000047683716,
				-0.6000000238418579
			],
			"type":"VEC3"
		},
		{
			"bufferView":5,
			"componentType":5126,
			"count":6236,
			"type":"VEC2"
		},
		{
			"bufferView":6,
			"componentType":5126,
			"count":6236,
			"type":"VEC3"
		},
		{
			"bufferView":7,
			"componentType":5123,
			"count":25926,
			"type":"SCALAR"
		},
		{
			"bufferView":8,
			"componentType":5126,
			"count":529,
			"max":[
				1.100000023841858,
				-1.5,
				1.100000023841858
			],
			"min":[
				-1.100000023841858,
				-1.600000023841858,
				-1.100000023841858
			],
			"type":"VEC3"
		},
		{
			"bufferView":9,
			"componentType":5126,
			"count":529,
			"type":"VEC2"
		},
		{
			"bufferView":10,
			"componentType":5126,
			"count":529,
			"type":"VEC3"
		},
		{
			"bufferView":11,
			"componentType":5123,
			"count":1896,
			"type":"SCALAR"
		},
		{
			"bufferView":12,
			"componentType":5126,
			"count":1605,
			"max":[
				0.949999988079071,
				-2,
				0.8361216187477112
			],
			"min":[
				-0.949999988079071,
				-2.4000000953674316,
				-0.8361216187477112
			],
			"type":"VEC3"
		},
		{
			"bufferView":13,
			"componentType":5126,
			"count":1605,
			"type":"VEC2"
		},
		{
			"bufferView":14,
			"componentType":5126,
			"count":1605,
			"type":"VEC3"
		},
		{
			"bufferView":15,
			"componentType":5123,
			"count":6648,
			"type":"SCALAR"
		},
		{
			"bufferView":16,
			"componentType":5126,
			"count":4016,
			"max":[
				3.759999990463257,
				3.759999990463257,
				8.300000190734863
			],
			"min":[
				-3.759999990463257,
				-3.759999990463257,
				2.4000000953674316
			],
			"type":"VEC3"
		},
		{
			"bufferView":17,
			"componentType":5126,
			"count":4016,
			"type":"VEC2"
		},
		{
			"bufferView":18,
			"componentType":5126,
			"count":4016,
			"type":"VEC3"
		},
		{
			"bufferView":19,
			"componentType":5123,
			"count":14220,
			"type":"SCALAR"
		}
	],
	"bufferViews":[
		{
			"buffer":0,
			"byteLength":10896,
			"byteOffset":0,
			"target":34962
		},
		{
			"buffer":0,
			"byteLength":7264,
			"byteOffset":10896,
			"target":34962
		},
		{
			"buffer":0,
			"byteLength":10896,
			"byteOffset":18160,
			"target":34962
		},
		{
			"buffer":0,
			"byteLength":8424,
			"byteOffset":29056,
			"target":34963
		},
		{
			"buffer":0,
			"byteLength":74832,
			"byteOffset":37480,
			"target":34962
		},
		{
			"buffer":0,
			"byteLength":49888,
			"byteOffset":112312,
			"target":34962
		},
		{
			"buffer":0,
			"byteLength":74832,
			"byteOffset":162200,
			"target":34962
		},
		{
			"buffer":0,
			"byteLength":51852,
			"byteOffset":237032,
			"target":34963
		},
		{
			"buffer":0,
			"byteLength":6348,
			"byteOffset":288884,
			"target":34962
		},
		{
			"buffer":0,
			"byteLength":4232,
			"byteOffset":295232,
			"target":34962
		},
		{
			"buffer":0,
			"byteLength":6348,
			"byteOffset":299464,
			"target":34962
		},
		{
			"buffer":0,
			"byteLength":3792,
			"byteOffset":305812,
			"target":34963
		},
		{
			"buffer":0,
			"byteLength":19260,
			"byteOffset":309604,
			"target":34962
		},
		{
			"buffer":0,
			"byteLength":12840,
			"byteOffset":328864,
			"target":34962
		},
		{
			"buffer":0,
			"byteLength":19260,
			"byteOffset":341704,
			"target":34962
		},
		{
			"buffer":0,
			"byteLength":13296,
			"byteOffset":360964,
			"target":34963
		},
		{
			"buffer":0,
			"byteLength":48192,
			"byteOffset":374260,
			"target":34962
		},
		{
			"buffer":0,
			"byteLength":32128,
			"byteOffset":422452,
			"target":34962
		},
		{
			"buffer":0,
			"byteLength":48192,
			"byteOffset":454580,
			"target":34962
		},
		{
			"buffer":0,
			"byteLength":28440,
			"byteOffset":502772,
			"target":34963
		}
	],
	"buffers":[
		{
			"byteLength":531212,
			"uri":"data:application/octet-stream;base64,"
		}
	]
}
